<svg width="263" height="81" viewBox="0 0 263 81" fill="none" xmlns="http://www.w3.org/2000/svg">
<g clip-path="url(#clip0_2158_208)">
<path fill-rule="evenodd" clip-rule="evenodd" d="M247.4 48.1459C240.081 39.5148 247.657 36.0666 253.071 29.3416L253.799 28.4207C257.929 23.3019 268.609 6.83209 258.4 2.71998L257.351 2.35588C252.365 0.599675 244.553 1.24219 239.139 1.15652C227.432 0.963766 215.811 0.878103 204.083 0.599677C195.33 0.385505 167.979 2.42014 158.841 1.30645C156.658 1.04945 23.135 0.685348 20.952 0.364089C16.6931 -0.257012 10.3369 -0.235589 6.39909 1.54205C5.37182 2.01322 3.3601 4.15495 3.27449 4.19778C2.97487 4.34769 2.33283 5.65415 1.7978 6.16817C1.60519 6.36092 2.05461 6.21101 1.62659 6.55368C1.41257 6.74644 0.556519 8.99524 0.556519 9.46642C-0.0855221 9.50925 0.791934 10.2589 0.192696 10.3017C0.214097 10.8585 0.363907 11.1156 0.0214849 11.137C0.513717 31.1407 0.321106 51.1658 0.0642902 71.1695C0.492317 71.1695 0.171297 72.7544 0.620726 72.7544C0.599324 73.0542 0.706331 73.761 0.984549 73.761C0.984549 73.9537 1.13436 74.5534 1.36977 74.5534C1.36977 74.7676 1.51958 75.3458 1.7336 75.3458C1.7336 75.3673 1.92621 75.9455 2.11882 75.9455C2.11882 76.1169 2.33283 76.3524 2.50405 76.3524C2.50405 76.3739 2.69666 76.9521 2.88927 76.9521C2.88927 77.1235 3.10328 77.3591 3.27449 77.3591C3.27449 77.5946 3.55271 77.7446 3.85233 77.766C3.85233 77.9159 4.06635 78.1515 4.23756 78.1515C4.23756 78.4085 4.51577 78.5584 4.81539 78.5584C4.81539 78.8154 5.09361 78.9439 5.39323 78.9654C5.39323 79.1795 5.94967 79.3509 6.16368 79.3509C6.16368 79.5865 6.74152 79.7578 6.93413 79.7578C6.95553 80.0362 7.98279 80.1647 8.30381 80.1647C8.32522 80.743 13.4615 80.5716 14.0394 80.5716C25.4891 80.5502 189.809 80.6359 201.237 80.486C211.039 80.3575 217.395 79.1795 227.646 80.2504C234.602 80.9571 266.34 83.9127 262.68 70.1414C260.669 62.5812 252.493 54.1642 247.4 48.1459Z" fill="#FFFAEE"/>
<path d="M58.96 33.64C56.9067 33.64 55.3333 34.2667 54.24 35.52C53.1467 36.7733 52.6 38.5467 52.6 40.84C52.6 43.16 53.2 44.9467 54.4 46.2C55.6267 47.4533 57.2667 48.08 59.32 48.08C60.4133 48.08 61.3333 47.9333 62.08 47.64C62.8533 47.3467 63.5867 47.0133 64.28 46.64C64.7333 47.0133 65.08 47.4667 65.32 48C65.5867 48.5067 65.72 49.1067 65.72 49.8C65.72 50.8933 65.1067 51.8267 63.88 52.6C62.68 53.3467 60.84 53.72 58.36 53.72C56.5733 53.72 54.8933 53.4667 53.32 52.96C51.7467 52.4533 50.3733 51.68 49.2 50.64C48.0267 49.5733 47.0933 48.24 46.4 46.64C45.7333 45.0133 45.4 43.08 45.4 40.84C45.4 38.76 45.72 36.9333 46.36 35.36C47.0267 33.76 47.92 32.4133 49.04 31.32C50.1867 30.2267 51.52 29.4 53.04 28.84C54.56 28.28 56.1867 28 57.92 28C60.3733 28 62.2667 28.4 63.6 29.2C64.96 30 65.64 31.0267 65.64 32.28C65.64 32.9733 65.4667 33.5733 65.12 34.08C64.7733 34.5867 64.3733 34.9867 63.92 35.28C63.2267 34.8267 62.48 34.44 61.68 34.12C60.9067 33.8 60 33.64 58.96 33.64ZM75.8516 52.96C75.5582 53.0133 75.1182 53.08 74.5316 53.16C73.9716 53.2667 73.3982 53.32 72.8116 53.32C72.2249 53.32 71.6916 53.28 71.2116 53.2C70.7582 53.12 70.3716 52.96 70.0516 52.72C69.7316 52.48 69.4782 52.16 69.2916 51.76C69.1316 51.3333 69.0516 50.7867 69.0516 50.12V26.92C69.3449 26.8667 69.7716 26.8 70.3316 26.72C70.9182 26.6133 71.5049 26.56 72.0916 26.56C72.6782 26.56 73.1982 26.6 73.6516 26.68C74.1316 26.76 74.5316 26.92 74.8516 27.16C75.1716 27.4 75.4116 27.7333 75.5716 28.16C75.7582 28.56 75.8516 29.0933 75.8516 29.76V52.96ZM88.4625 48.68C88.9158 48.68 89.4092 48.64 89.9425 48.56C90.5025 48.4533 90.9158 48.32 91.1825 48.16V44.96L88.3025 45.2C87.5558 45.2533 86.9425 45.4133 86.4625 45.68C85.9825 45.9467 85.7425 46.3467 85.7425 46.88C85.7425 47.4133 85.9425 47.8533 86.3425 48.2C86.7692 48.52 87.4758 48.68 88.4625 48.68ZM88.1425 32.96C89.5825 32.96 90.8892 33.1067 92.0625 33.4C93.2625 33.6933 94.2758 34.1467 95.1025 34.76C95.9558 35.3467 96.6092 36.1067 97.0625 37.04C97.5158 37.9467 97.7425 39.0267 97.7425 40.28V49.24C97.7425 49.9333 97.5425 50.5067 97.1425 50.96C96.7692 51.3867 96.3158 51.76 95.7825 52.08C94.0492 53.12 91.6092 53.64 88.4625 53.64C87.0492 53.64 85.7692 53.5067 84.6225 53.24C83.5025 52.9733 82.5292 52.5733 81.7025 52.04C80.9025 51.5067 80.2758 50.8267 79.8225 50C79.3958 49.1733 79.1825 48.2133 79.1825 47.12C79.1825 45.28 79.7292 43.8667 80.8225 42.88C81.9158 41.8933 83.6092 41.28 85.9025 41.04L91.1425 40.48V40.2C91.1425 39.4267 90.7958 38.88 90.1025 38.56C89.4358 38.2133 88.4625 38.04 87.1825 38.04C86.1692 38.04 85.1825 38.1467 84.2225 38.36C83.2625 38.5733 82.3958 38.84 81.6225 39.16C81.2758 38.92 80.9825 38.56 80.7425 38.08C80.5025 37.5733 80.3825 37.0533 80.3825 36.52C80.3825 35.8267 80.5425 35.28 80.8625 34.88C81.2092 34.4533 81.7292 34.0933 82.4225 33.8C83.1958 33.5067 84.1025 33.2933 85.1425 33.16C86.2092 33.0267 87.2092 32.96 88.1425 32.96ZM118.3 47.2C118.3 49.2267 117.54 50.8133 116.02 51.96C114.5 53.1067 112.26 53.68 109.3 53.68C108.18 53.68 107.14 53.6 106.18 53.44C105.22 53.28 104.394 53.04 103.7 52.72C103.034 52.3733 102.5 51.9467 102.1 51.44C101.727 50.9333 101.54 50.3333 101.54 49.64C101.54 49 101.674 48.4667 101.94 48.04C102.207 47.5867 102.527 47.2133 102.9 46.92C103.674 47.3467 104.554 47.7333 105.54 48.08C106.554 48.4 107.714 48.56 109.02 48.56C109.847 48.56 110.474 48.44 110.9 48.2C111.354 47.96 111.58 47.64 111.58 47.24C111.58 46.8667 111.42 46.5733 111.1 46.36C110.78 46.1467 110.247 45.9733 109.5 45.84L108.3 45.6C105.98 45.1467 104.247 44.44 103.1 43.48C101.98 42.4933 101.42 41.0933 101.42 39.28C101.42 38.2933 101.634 37.4 102.06 36.6C102.487 35.8 103.087 35.1333 103.86 34.6C104.634 34.0667 105.554 33.6533 106.62 33.36C107.714 33.0667 108.914 32.92 110.22 32.92C111.207 32.92 112.127 33 112.98 33.16C113.86 33.2933 114.62 33.5067 115.26 33.8C115.9 34.0933 116.407 34.48 116.78 34.96C117.154 35.4133 117.34 35.96 117.34 36.6C117.34 37.2133 117.22 37.7467 116.98 38.2C116.767 38.6267 116.487 38.9867 116.14 39.28C115.927 39.1467 115.607 39.0133 115.18 38.88C114.754 38.72 114.287 38.5867 113.78 38.48C113.274 38.3467 112.754 38.24 112.22 38.16C111.714 38.08 111.247 38.04 110.82 38.04C109.94 38.04 109.26 38.1467 108.78 38.36C108.3 38.5467 108.06 38.8533 108.06 39.28C108.06 39.5733 108.194 39.8133 108.46 40C108.727 40.1867 109.234 40.36 109.98 40.52L111.22 40.8C113.78 41.3867 115.594 42.2 116.66 43.24C117.754 44.2533 118.3 45.5733 118.3 47.2ZM137.988 47.2C137.988 49.2267 137.228 50.8133 135.708 51.96C134.188 53.1067 131.948 53.68 128.988 53.68C127.868 53.68 126.828 53.6 125.868 53.44C124.908 53.28 124.081 53.04 123.388 52.72C122.721 52.3733 122.188 51.9467 121.788 51.44C121.414 50.9333 121.228 50.3333 121.228 49.64C121.228 49 121.361 48.4667 121.628 48.04C121.894 47.5867 122.214 47.2133 122.588 46.92C123.361 47.3467 124.241 47.7333 125.228 48.08C126.241 48.4 127.401 48.56 128.708 48.56C129.534 48.56 130.161 48.44 130.588 48.2C131.041 47.96 131.268 47.64 131.268 47.24C131.268 46.8667 131.108 46.5733 130.788 46.36C130.468 46.1467 129.934 45.9733 129.188 45.84L127.988 45.6C125.668 45.1467 123.934 44.44 122.788 43.48C121.668 42.4933 121.108 41.0933 121.108 39.28C121.108 38.2933 121.321 37.4 121.748 36.6C122.174 35.8 122.774 35.1333 123.548 34.6C124.321 34.0667 125.241 33.6533 126.308 33.36C127.401 33.0667 128.601 32.92 129.908 32.92C130.894 32.92 131.814 33 132.668 33.16C133.548 33.2933 134.308 33.5067 134.948 33.8C135.588 34.0933 136.094 34.48 136.468 34.96C136.841 35.4133 137.028 35.96 137.028 36.6C137.028 37.2133 136.908 37.7467 136.668 38.2C136.454 38.6267 136.174 38.9867 135.828 39.28C135.614 39.1467 135.294 39.0133 134.868 38.88C134.441 38.72 133.974 38.5867 133.468 38.48C132.961 38.3467 132.441 38.24 131.908 38.16C131.401 38.08 130.934 38.04 130.508 38.04C129.628 38.04 128.948 38.1467 128.468 38.36C127.988 38.5467 127.748 38.8533 127.748 39.28C127.748 39.5733 127.881 39.8133 128.148 40C128.414 40.1867 128.921 40.36 129.668 40.52L130.908 40.8C133.468 41.3867 135.281 42.2 136.348 43.24C137.441 44.2533 137.988 45.5733 137.988 47.2ZM141.115 28.16C141.115 27.1467 141.449 26.2933 142.115 25.6C142.809 24.9067 143.715 24.56 144.835 24.56C145.955 24.56 146.849 24.9067 147.515 25.6C148.209 26.2933 148.555 27.1467 148.555 28.16C148.555 29.1733 148.209 30.0267 147.515 30.72C146.849 31.4133 145.955 31.76 144.835 31.76C143.715 31.76 142.809 31.4133 142.115 30.72C141.449 30.0267 141.115 29.1733 141.115 28.16ZM148.235 52.96C147.942 53.0133 147.502 53.08 146.915 53.16C146.355 53.2667 145.782 53.32 145.195 53.32C144.609 53.32 144.075 53.28 143.595 53.2C143.142 53.12 142.755 52.96 142.435 52.72C142.115 52.48 141.862 52.16 141.675 51.76C141.515 51.3333 141.435 50.7867 141.435 50.12V33.84C141.729 33.7867 142.155 33.72 142.715 33.64C143.302 33.5333 143.889 33.48 144.475 33.48C145.062 33.48 145.582 33.52 146.035 33.6C146.515 33.68 146.915 33.84 147.235 34.08C147.555 34.32 147.795 34.6533 147.955 35.08C148.142 35.48 148.235 36.0133 148.235 36.68V52.96ZM163.524 38.32C162.858 38.32 162.218 38.4267 161.604 38.64C161.018 38.8533 160.498 39.1733 160.044 39.6C159.618 40 159.271 40.5067 159.004 41.12C158.738 41.7333 158.604 42.4533 158.604 43.28C158.604 44.9333 159.071 46.1733 160.004 47C160.964 47.8267 162.124 48.24 163.484 48.24C164.284 48.24 164.978 48.1467 165.564 47.96C166.151 47.7733 166.671 47.5733 167.124 47.36C167.658 47.7333 168.058 48.1467 168.324 48.6C168.591 49.0267 168.724 49.5467 168.724 50.16C168.724 51.2533 168.204 52.1067 167.164 52.72C166.124 53.3067 164.684 53.6 162.844 53.6C161.164 53.6 159.644 53.36 158.284 52.88C156.924 52.3733 155.751 51.68 154.764 50.8C153.804 49.8933 153.058 48.8133 152.524 47.56C151.991 46.3067 151.724 44.92 151.724 43.4C151.724 41.64 152.004 40.1067 152.564 38.8C153.151 37.4667 153.938 36.3733 154.924 35.52C155.911 34.6667 157.044 34.0267 158.324 33.6C159.631 33.1733 161.004 32.96 162.444 32.96C164.364 32.96 165.844 33.3067 166.884 34C167.924 34.6933 168.444 35.5867 168.444 36.68C168.444 37.1867 168.324 37.6667 168.084 38.12C167.844 38.5467 167.564 38.92 167.244 39.24C166.791 39.0267 166.244 38.8267 165.604 38.64C164.964 38.4267 164.271 38.32 163.524 38.32Z" fill="black"/>
</g>
<defs>
<clipPath id="clip0_2158_208">
<rect width="81" height="263" fill="white" transform="translate(3.54062e-06 81) rotate(-90)"/>
</clipPath>
</defs>
</svg>
