<svg width="263" height="81" viewBox="0 0 263 81" fill="none" xmlns="http://www.w3.org/2000/svg">
<g clip-path="url(#clip0_2186_18)">
<path fill-rule="evenodd" clip-rule="evenodd" d="M247.4 48.1459C240.081 39.5147 247.657 36.0666 253.071 29.3415L253.799 28.4206C257.929 23.3019 268.609 6.83203 258.4 2.71992L257.351 2.35582C252.365 0.599614 244.553 1.24213 239.139 1.15646C227.432 0.963705 215.811 0.878042 204.083 0.599616C195.33 0.385444 167.979 2.42008 158.841 1.30639C156.658 1.04939 23.135 0.685286 20.952 0.364028C16.6931 -0.257073 10.3369 -0.23565 6.39909 1.54198C5.37182 2.01316 3.3601 4.15488 3.27449 4.19772C2.97487 4.34763 2.33283 5.65409 1.7978 6.16811C1.60519 6.36086 2.05461 6.21095 1.62659 6.55362C1.41257 6.74638 0.556519 8.99518 0.556519 9.46635C-0.0855221 9.50919 0.791934 10.2588 0.192696 10.3016C0.214097 10.8585 0.363907 11.1155 0.0214849 11.1369C0.513717 31.1406 0.321106 51.1657 0.0642902 71.1694C0.492317 71.1694 0.171297 72.7543 0.620726 72.7543C0.599324 73.0541 0.706331 73.7609 0.984549 73.7609C0.984549 73.9537 1.13436 74.5533 1.36977 74.5533C1.36977 74.7675 1.51958 75.3458 1.7336 75.3458C1.7336 75.3672 1.92621 75.9455 2.11882 75.9455C2.11882 76.1168 2.33283 76.3524 2.50405 76.3524C2.50405 76.3738 2.69666 76.9521 2.88927 76.9521C2.88927 77.1234 3.10328 77.359 3.27449 77.359C3.27449 77.5946 3.55271 77.7445 3.85233 77.7659C3.85233 77.9158 4.06635 78.1514 4.23756 78.1514C4.23756 78.4084 4.51577 78.5584 4.81539 78.5584C4.81539 78.8154 5.09361 78.9439 5.39323 78.9653C5.39323 79.1795 5.94967 79.3508 6.16368 79.3508C6.16368 79.5864 6.74152 79.7577 6.93413 79.7577C6.95553 80.0362 7.98279 80.1647 8.30381 80.1647C8.32522 80.7429 13.4615 80.5716 14.0394 80.5716C25.4891 80.5502 189.809 80.6358 201.237 80.4859C211.039 80.3574 217.395 79.1795 227.646 80.2503C234.602 80.9571 266.34 83.9127 262.68 70.1414C260.669 62.5811 252.493 54.1641 247.4 48.1459Z" fill="#FFFAEE"/>
<path d="M45.48 34.36C45.2933 34.0667 45.12 33.6667 44.96 33.16C44.8 32.6533 44.72 32.12 44.72 31.56C44.72 30.52 44.9467 29.7733 45.4 29.32C45.88 28.8667 46.4933 28.64 47.24 28.64H64.68C64.8667 28.9333 65.04 29.3333 65.2 29.84C65.36 30.3467 65.44 30.88 65.44 31.44C65.44 32.48 65.2 33.2267 64.72 33.68C64.2667 34.1333 63.6667 34.36 62.92 34.36H58.48V52.84C58.1867 52.92 57.72 53 57.08 53.08C56.4667 53.16 55.8533 53.2 55.24 53.2C54.6267 53.2 54.08 53.1467 53.6 53.04C53.1467 52.96 52.76 52.8 52.44 52.56C52.12 52.32 51.88 51.9867 51.72 51.56C51.56 51.1333 51.48 50.5733 51.48 49.88V34.36H45.48ZM86.0438 43.28C86.0438 44.9333 85.7904 46.4133 85.2838 47.72C84.7771 49 84.0571 50.08 83.1238 50.96C82.2171 51.84 81.1238 52.5067 79.8438 52.96C78.5638 53.4133 77.1371 53.64 75.5638 53.64C73.9904 53.64 72.5638 53.4 71.2838 52.92C70.0038 52.44 68.8971 51.76 67.9638 50.88C67.0571 49.9733 66.3504 48.88 65.8438 47.6C65.3371 46.32 65.0838 44.88 65.0838 43.28C65.0838 41.7067 65.3371 40.28 65.8438 39C66.3504 37.72 67.0571 36.64 67.9638 35.76C68.8971 34.8533 70.0038 34.16 71.2838 33.68C72.5638 33.2 73.9904 32.96 75.5638 32.96C77.1371 32.96 78.5638 33.2133 79.8438 33.72C81.1238 34.2 82.2171 34.8933 83.1238 35.8C84.0571 36.68 84.7771 37.76 85.2838 39.04C85.7904 40.32 86.0438 41.7333 86.0438 43.28ZM72.0438 43.28C72.0438 44.9067 72.3504 46.16 72.9638 47.04C73.6038 47.8933 74.4838 48.32 75.6038 48.32C76.7238 48.32 77.5771 47.88 78.1638 47C78.7771 46.12 79.0838 44.88 79.0838 43.28C79.0838 41.68 78.7771 40.4533 78.1638 39.6C77.5504 38.72 76.6838 38.28 75.5638 38.28C74.4438 38.28 73.5771 38.72 72.9638 39.6C72.3504 40.4533 72.0438 41.68 72.0438 43.28ZM98.2813 32.96C99.8813 32.96 101.361 33.1733 102.721 33.6C104.108 34 105.295 34.6267 106.281 35.48C107.268 36.3333 108.041 37.4133 108.601 38.72C109.161 40 109.441 41.5333 109.441 43.32C109.441 45.0267 109.201 46.52 108.721 47.8C108.241 49.08 107.561 50.16 106.681 51.04C105.801 51.8933 104.735 52.5333 103.481 52.96C102.255 53.3867 100.881 53.6 99.3613 53.6C98.2146 53.6 97.1479 53.4267 96.1613 53.08V59.72C95.8946 59.8 95.4679 59.88 94.8813 59.96C94.2946 60.0667 93.6946 60.12 93.0813 60.12C92.4946 60.12 91.9613 60.08 91.4813 60C91.0279 59.92 90.6413 59.76 90.3213 59.52C90.0013 59.28 89.7613 58.9467 89.6013 58.52C89.4413 58.12 89.3613 57.5867 89.3613 56.92V37.72C89.3613 37 89.5079 36.4133 89.8013 35.96C90.1213 35.5067 90.5479 35.0933 91.0813 34.72C91.9079 34.1867 92.9346 33.76 94.1613 33.44C95.3879 33.12 96.7613 32.96 98.2813 32.96ZM98.3613 48.24C101.108 48.24 102.481 46.6 102.481 43.32C102.481 41.6133 102.135 40.3467 101.441 39.52C100.775 38.6933 99.8013 38.28 98.5213 38.28C98.0146 38.28 97.5613 38.3467 97.1613 38.48C96.7613 38.5867 96.4146 38.72 96.1213 38.88V47.68C96.4413 47.84 96.7879 47.9733 97.1613 48.08C97.5346 48.1867 97.9346 48.24 98.3613 48.24ZM121.68 32.96C123.28 32.96 124.76 33.1733 126.12 33.6C127.506 34 128.693 34.6267 129.68 35.48C130.666 36.3333 131.44 37.4133 132 38.72C132.56 40 132.84 41.5333 132.84 43.32C132.84 45.0267 132.6 46.52 132.12 47.8C131.64 49.08 130.96 50.16 130.08 51.04C129.2 51.8933 128.133 52.5333 126.88 52.96C125.653 53.3867 124.28 53.6 122.76 53.6C121.613 53.6 120.546 53.4267 119.56 53.08V59.72C119.293 59.8 118.866 59.88 118.28 59.96C117.693 60.0667 117.093 60.12 116.48 60.12C115.893 60.12 115.36 60.08 114.88 60C114.426 59.92 114.04 59.76 113.72 59.52C113.4 59.28 113.16 58.9467 113 58.52C112.84 58.12 112.76 57.5867 112.76 56.92V37.72C112.76 37 112.906 36.4133 113.2 35.96C113.52 35.5067 113.946 35.0933 114.48 34.72C115.306 34.1867 116.333 33.76 117.56 33.44C118.786 33.12 120.16 32.96 121.68 32.96ZM121.76 48.24C124.506 48.24 125.88 46.6 125.88 43.32C125.88 41.6133 125.533 40.3467 124.84 39.52C124.173 38.6933 123.2 38.28 121.92 38.28C121.413 38.28 120.96 38.3467 120.56 38.48C120.16 38.5867 119.813 38.72 119.52 38.88V47.68C119.84 47.84 120.186 47.9733 120.56 48.08C120.933 48.1867 121.333 48.24 121.76 48.24ZM135.998 28.16C135.998 27.1467 136.331 26.2933 136.998 25.6C137.691 24.9067 138.598 24.56 139.718 24.56C140.838 24.56 141.731 24.9067 142.398 25.6C143.091 26.2933 143.438 27.1467 143.438 28.16C143.438 29.1733 143.091 30.0267 142.398 30.72C141.731 31.4133 140.838 31.76 139.718 31.76C138.598 31.76 137.691 31.4133 136.998 30.72C136.331 30.0267 135.998 29.1733 135.998 28.16ZM143.118 52.96C142.825 53.0133 142.385 53.08 141.798 53.16C141.238 53.2667 140.665 53.32 140.078 53.32C139.491 53.32 138.958 53.28 138.478 53.2C138.025 53.12 137.638 52.96 137.318 52.72C136.998 52.48 136.745 52.16 136.558 51.76C136.398 51.3333 136.318 50.7867 136.318 50.12V33.84C136.611 33.7867 137.038 33.72 137.598 33.64C138.185 33.5333 138.771 33.48 139.358 33.48C139.945 33.48 140.465 33.52 140.918 33.6C141.398 33.68 141.798 33.84 142.118 34.08C142.438 34.32 142.678 34.6533 142.838 35.08C143.025 35.48 143.118 36.0133 143.118 36.68V52.96ZM159.767 40.68C159.767 39.8533 159.527 39.2533 159.047 38.88C158.594 38.48 157.967 38.28 157.167 38.28C156.634 38.28 156.101 38.3467 155.567 38.48C155.061 38.6133 154.621 38.8133 154.247 39.08V52.96C153.981 53.04 153.554 53.12 152.967 53.2C152.407 53.28 151.821 53.32 151.207 53.32C150.621 53.32 150.087 53.28 149.607 53.2C149.154 53.12 148.767 52.96 148.447 52.72C148.127 52.48 147.874 52.16 147.687 51.76C147.527 51.3333 147.447 50.7867 147.447 50.12V38.12C147.447 37.4 147.594 36.8133 147.887 36.36C148.207 35.9067 148.634 35.4933 149.167 35.12C150.074 34.48 151.207 33.96 152.567 33.56C153.954 33.16 155.487 32.96 157.167 32.96C160.181 32.96 162.501 33.6267 164.127 34.96C165.754 36.2667 166.567 38.0933 166.567 40.44V52.96C166.301 53.04 165.874 53.12 165.287 53.2C164.727 53.28 164.141 53.32 163.527 53.32C162.941 53.32 162.407 53.28 161.927 53.2C161.474 53.12 161.087 52.96 160.767 52.72C160.447 52.48 160.194 52.16 160.007 51.76C159.847 51.3333 159.767 50.7867 159.767 50.12V40.68ZM180.248 32.96C181.768 32.96 183.141 33.16 184.368 33.56C185.621 33.9333 186.674 34.4267 187.528 35.04C188.061 35.4133 188.474 35.8267 188.768 36.28C189.088 36.7333 189.248 37.32 189.248 38.04V52.04C189.248 53.4533 188.981 54.6667 188.448 55.68C187.914 56.72 187.181 57.5733 186.248 58.24C185.341 58.9333 184.261 59.44 183.008 59.76C181.781 60.08 180.461 60.24 179.048 60.24C176.621 60.24 174.714 59.9067 173.328 59.24C171.941 58.6 171.248 57.5467 171.248 56.08C171.248 55.4667 171.368 54.92 171.608 54.44C171.874 53.9867 172.168 53.64 172.488 53.4C173.261 53.8267 174.128 54.1867 175.088 54.48C176.074 54.7733 177.088 54.92 178.128 54.92C179.568 54.92 180.714 54.68 181.568 54.2C182.421 53.72 182.848 52.9467 182.848 51.88V51.24C181.754 51.72 180.421 51.96 178.848 51.96C177.648 51.96 176.501 51.7867 175.408 51.44C174.341 51.0667 173.394 50.5067 172.568 49.76C171.768 48.9867 171.114 48 170.608 46.8C170.128 45.6 169.888 44.1733 169.888 42.52C169.888 40.8933 170.141 39.48 170.648 38.28C171.181 37.08 171.901 36.0933 172.808 35.32C173.741 34.52 174.834 33.9333 176.088 33.56C177.368 33.16 178.754 32.96 180.248 32.96ZM182.728 38.76C182.541 38.6533 182.261 38.5467 181.888 38.44C181.541 38.3333 181.101 38.28 180.568 38.28C179.261 38.28 178.274 38.6533 177.608 39.4C176.968 40.12 176.648 41.16 176.648 42.52C176.648 44.0667 176.968 45.1867 177.608 45.88C178.274 46.5467 179.114 46.88 180.128 46.88C181.221 46.88 182.088 46.6267 182.728 46.12V38.76Z" fill="black"/>
</g>
<defs>
<clipPath id="clip0_2186_18">
<rect width="81" height="263" fill="white" transform="translate(3.54062e-06 81) rotate(-90)"/>
</clipPath>
</defs>
</svg>
