<svg width="263" height="81" viewBox="0 0 263 81" fill="none" xmlns="http://www.w3.org/2000/svg">
<g clip-path="url(#clip0_2159_39)">
<path fill-rule="evenodd" clip-rule="evenodd" d="M247.4 48.146C240.081 39.5149 247.657 36.0667 253.071 29.3417L253.799 28.4207C257.929 23.302 268.609 6.83215 258.4 2.72004L257.351 2.35595C252.365 0.599736 244.553 1.24225 239.139 1.15658C227.432 0.963827 215.811 0.878164 204.083 0.599738C195.33 0.385566 167.979 2.4202 158.841 1.30651C156.658 1.04951 23.135 0.685409 20.952 0.36415C16.6931 -0.256951 10.3369 -0.235527 6.39909 1.54211C5.37182 2.01328 3.3601 4.15501 3.27449 4.19784C2.97487 4.34776 2.33283 5.65421 1.7978 6.16823C1.60519 6.36098 2.05461 6.21107 1.62659 6.55374C1.41257 6.7465 0.556519 8.9953 0.556519 9.46648C-0.0855221 9.50931 0.791934 10.2589 0.192696 10.3018C0.214097 10.8586 0.363907 11.1156 0.0214849 11.137C0.513717 31.1407 0.321106 51.1658 0.0642902 71.1695C0.492317 71.1695 0.171297 72.7544 0.620726 72.7544C0.599324 73.0543 0.706331 73.761 0.984549 73.761C0.984549 73.9538 1.13436 74.5535 1.36977 74.5535C1.36977 74.7676 1.51958 75.3459 1.7336 75.3459C1.7336 75.3673 1.92621 75.9456 2.11882 75.9456C2.11882 76.1169 2.33283 76.3525 2.50405 76.3525C2.50405 76.3739 2.69666 76.9522 2.88927 76.9522C2.88927 77.1235 3.10328 77.3591 3.27449 77.3591C3.27449 77.5947 3.55271 77.7446 3.85233 77.766C3.85233 77.916 4.06635 78.1516 4.23756 78.1516C4.23756 78.4086 4.51577 78.5585 4.81539 78.5585C4.81539 78.8155 5.09361 78.944 5.39323 78.9654C5.39323 79.1796 5.94967 79.3509 6.16368 79.3509C6.16368 79.5865 6.74152 79.7579 6.93413 79.7579C6.95553 80.0363 7.98279 80.1648 8.30381 80.1648C8.32522 80.743 13.4615 80.5717 14.0394 80.5717C25.4891 80.5503 189.809 80.6359 201.237 80.486C211.039 80.3575 217.395 79.1796 227.646 80.2504C234.602 80.9572 266.34 83.9128 262.68 70.1415C260.669 62.5812 252.493 54.1642 247.4 48.146Z" fill="#FFFAEE"/>
<path d="M61.12 52.2C60.7467 52.52 60.16 52.8 59.36 53.04C58.5867 53.28 57.7333 53.4 56.8 53.4C55.68 53.4 54.72 53.24 53.92 52.92C53.12 52.5733 52.5733 52.1067 52.28 51.52C51.9867 50.9067 51.6267 50.12 51.2 49.16C50.7733 48.1733 50.32 47.08 49.84 45.88C49.3867 44.68 48.9067 43.4133 48.4 42.08C47.92 40.72 47.4533 39.3467 47 37.96C46.5467 36.5733 46.12 35.2133 45.72 33.88C45.32 32.5467 44.9733 31.2933 44.68 30.12C45.0533 29.7467 45.5867 29.4133 46.28 29.12C47 28.8 47.76 28.64 48.56 28.64C49.5467 28.64 50.3467 28.8533 50.96 29.28C51.6 29.68 52.0667 30.44 52.36 31.56C53.08 34.1733 53.8 36.68 54.52 39.08C55.2667 41.4533 56.04 43.9333 56.84 46.52H57.08C57.8 44.0133 58.5333 41.28 59.28 38.32C60.0533 35.36 60.7867 32.4133 61.48 29.48C61.96 29.24 62.4667 29.04 63 28.88C63.56 28.72 64.1867 28.64 64.88 28.64C65.8667 28.64 66.7067 28.8667 67.4 29.32C68.0933 29.7467 68.44 30.4667 68.44 31.48C68.44 32.0667 68.2933 32.92 68 34.04C67.7333 35.16 67.3733 36.4267 66.92 37.84C66.4933 39.2267 66 40.68 65.44 42.2C64.9067 43.72 64.36 45.16 63.8 46.52C63.2667 47.8533 62.76 49.04 62.28 50.08C61.8 51.0933 61.4133 51.8 61.12 52.2ZM70.8028 28.16C70.8028 27.1467 71.1361 26.2933 71.8028 25.6C72.4961 24.9067 73.4028 24.56 74.5228 24.56C75.6428 24.56 76.5361 24.9067 77.2028 25.6C77.8961 26.2933 78.2428 27.1467 78.2428 28.16C78.2428 29.1733 77.8961 30.0267 77.2028 30.72C76.5361 31.4133 75.6428 31.76 74.5228 31.76C73.4028 31.76 72.4961 31.4133 71.8028 30.72C71.1361 30.0267 70.8028 29.1733 70.8028 28.16ZM77.9228 52.96C77.6295 53.0133 77.1895 53.08 76.6028 53.16C76.0428 53.2667 75.4695 53.32 74.8828 53.32C74.2961 53.32 73.7628 53.28 73.2828 53.2C72.8295 53.12 72.4428 52.96 72.1228 52.72C71.8028 52.48 71.5495 52.16 71.3628 51.76C71.2028 51.3333 71.1228 50.7867 71.1228 50.12V33.84C71.4161 33.7867 71.8428 33.72 72.4028 33.64C72.9895 33.5333 73.5761 33.48 74.1628 33.48C74.7495 33.48 75.2695 33.52 75.7228 33.6C76.2028 33.68 76.6028 33.84 76.9228 34.08C77.2428 34.32 77.4828 34.6533 77.6428 35.08C77.8295 35.48 77.9228 36.0133 77.9228 36.68V52.96ZM82.3319 26.96C82.5985 26.88 83.0252 26.8 83.6119 26.72C84.1985 26.6133 84.7985 26.56 85.4119 26.56C85.9985 26.56 86.5185 26.6 86.9719 26.68C87.4519 26.76 87.8519 26.92 88.1719 27.16C88.4919 27.4 88.7319 27.7333 88.8919 28.16C89.0519 28.56 89.1319 29.0933 89.1319 29.76V33.68C89.7985 33.4133 90.4252 33.2267 91.0119 33.12C91.6252 33.0133 92.2919 32.96 93.0119 32.96C94.2919 32.96 95.5052 33.1867 96.6519 33.64C97.7985 34.0933 98.8119 34.76 99.6919 35.64C100.572 36.4933 101.265 37.56 101.772 38.84C102.279 40.12 102.532 41.6 102.532 43.28C102.532 45.0133 102.265 46.5333 101.732 47.84C101.225 49.12 100.505 50.1867 99.5719 51.04C98.6385 51.8933 97.4919 52.5467 96.1319 53C94.7985 53.4267 93.3185 53.64 91.6919 53.64C89.9319 53.64 88.4385 53.4267 87.2119 53C85.9852 52.6 84.9452 52.0933 84.0919 51.48C82.9185 50.6533 82.3319 49.5867 82.3319 48.28V26.96ZM91.6919 48.28C92.9185 48.28 93.8652 47.8667 94.5319 47.04C95.2252 46.1867 95.5719 44.9333 95.5719 43.28C95.5719 41.6 95.2252 40.3467 94.5319 39.52C93.8385 38.6933 92.9052 38.28 91.7319 38.28C91.1985 38.28 90.7319 38.3333 90.3319 38.44C89.9585 38.5467 89.5452 38.7067 89.0919 38.92V47.64C89.3852 47.8267 89.7319 47.9867 90.1319 48.12C90.5585 48.2267 91.0785 48.28 91.6919 48.28ZM116.126 53.64C114.552 53.64 113.086 53.4267 111.726 53C110.392 52.5467 109.219 51.88 108.206 51C107.219 50.12 106.432 49.0133 105.846 47.68C105.286 46.3467 105.006 44.7867 105.006 43C105.006 41.24 105.286 39.7333 105.846 38.48C106.432 37.2 107.192 36.16 108.126 35.36C109.059 34.5333 110.126 33.9333 111.326 33.56C112.526 33.16 113.752 32.96 115.006 32.96C116.419 32.96 117.699 33.1733 118.846 33.6C120.019 34.0267 121.019 34.6133 121.846 35.36C122.699 36.1067 123.352 37 123.806 38.04C124.286 39.08 124.526 40.2133 124.526 41.44C124.526 42.3467 124.272 43.04 123.766 43.52C123.259 44 122.552 44.3067 121.646 44.44L111.766 45.92C112.059 46.8 112.659 47.4667 113.566 47.92C114.472 48.3467 115.512 48.56 116.686 48.56C117.779 48.56 118.806 48.4267 119.766 48.16C120.752 47.8667 121.552 47.5333 122.166 47.16C122.592 47.4267 122.952 47.8 123.246 48.28C123.539 48.76 123.686 49.2667 123.686 49.8C123.686 51 123.126 51.8933 122.006 52.48C121.152 52.9333 120.192 53.24 119.126 53.4C118.059 53.56 117.059 53.64 116.126 53.64ZM115.006 37.92C114.366 37.92 113.806 38.0267 113.326 38.24C112.872 38.4533 112.499 38.7333 112.206 39.08C111.912 39.4 111.686 39.7733 111.526 40.2C111.392 40.6 111.312 41.0133 111.286 41.44L118.126 40.32C118.046 39.7867 117.752 39.2533 117.246 38.72C116.739 38.1867 115.992 37.92 115.006 37.92Z" fill="black"/>
</g>
<defs>
<clipPath id="clip0_2159_39">
<rect width="81" height="263" fill="white" transform="translate(3.54062e-06 81) rotate(-90)"/>
</clipPath>
</defs>
</svg>
